<svg xmlns="http://www.w3.org/2000/svg" viewBox="0 0 64 64">
  <rect width="64" height="64" rx="15" fill="#2B50FF"/>
  <g stroke="#FFFFFF" stroke-width="3.5" stroke-linecap="round" fill="none">
    <path d="M22 13h-5a4 4 0 0 0-4 4v5"/>
    <path d="M42 13h5a4 4 0 0 1 4 4v5"/>
    <path d="M22 51h-5a4 4 0 0 1-4-4v-5"/>
    <path d="M42 51h5a4 4 0 0 0 4-4v-5"/>
    <path d="M24 40c2.2 2.6 4.9 4 8 4s5.8-1.4 8-4"/>
  </g>
  <circle cx="25" cy="28" r="2.6" fill="#FFFFFF"/>
  <circle cx="39" cy="28" r="2.6" fill="#FFFFFF"/>
</svg>
